<svg width="16" height="16" viewBox="0 0 16 16" fill="none" xmlns="http://www.w3.org/2000/svg">
<path d="M8.00005 1.6001C7.15136 1.6001 6.33742 1.93724 5.73731 2.53736C5.13719 3.13747 4.80005 3.9514 4.80005 4.8001C4.80005 5.64879 5.13719 6.46272 5.73731 7.06284C6.33742 7.66296 7.15136 8.0001 8.00005 8.0001C8.84874 8.0001 9.66267 7.66296 10.2628 7.06284C10.8629 6.46272 11.2 5.64879 11.2 4.8001C11.2 3.9514 10.8629 3.13747 10.2628 2.53736C9.66267 1.93724 8.84874 1.6001 8.00005 1.6001ZM5.60005 4.8001C5.60005 4.16358 5.85291 3.55313 6.30299 3.10304C6.75308 2.65295 7.36353 2.4001 8.00005 2.4001C8.63657 2.4001 9.24702 2.65295 9.69711 3.10304C10.1472 3.55313 10.4 4.16358 10.4 4.8001C10.4 5.43662 10.1472 6.04707 9.69711 6.49715C9.24702 6.94724 8.63657 7.2001 8.00005 7.2001C7.36353 7.2001 6.75308 6.94724 6.30299 6.49715C5.85291 6.04707 5.60005 5.43662 5.60005 4.8001Z" fill="#15151D"/>
<path d="M12.5 8.5L14.5 13.5H13.5L12 9.5H4L2.5 13.5H1.5L3.5 8.5H12.5Z" fill="#15151D"/>
</svg>
