<svg width="700" height="127" viewBox="0 0 700 127" fill="none" xmlns="http://www.w3.org/2000/svg">
<mask id="mask0_118_254" style="mask-type:luminance" maskUnits="userSpaceOnUse" x="453" y="15" width="208" height="100">
<path d="M453.733 15.2717H660.677V114.728H453.733V15.2717Z" fill="white"/>
</mask>
<g mask="url(#mask0_118_254)">
<path d="M492.844 113.435V36.8621H455.614V15.2717H556.198V36.8621H518.968V113.435H492.844ZM584.518 15.2717L606.73 87.3776C607.086 88.339 607.41 89.1181 607.766 89.6734C608.131 90.2425 608.691 90.5215 609.448 90.5105C610.333 90.5105 610.968 90.2508 611.355 89.7314C611.857 88.969 612.229 88.1289 612.457 87.245L634.81 15.2717H660.669L636.401 91.8366C634.136 98.8925 630.995 104.473 626.978 108.578C622.977 112.684 617.322 114.734 610.012 114.728C602.078 114.734 596.132 112.814 592.176 108.968C588.231 105.147 585.024 99.4118 582.562 91.8366L557.499 15.2717H584.518Z" fill="#15151E"/>
</g>
<path d="M138.208 71.1828L94.7617 113.435H39.3313L108.288 44.86C133.898 19.4489 146.264 15.2717 189.975 15.2717H362.598L325.103 52.0209H194.898C162.259 52.0209 155.297 54.5405 138.174 71.1828H138.208ZM319.541 57.9137H195.702C162.806 57.9137 157.66 60.4001 142.741 75.36L104.765 113.435H156.143L168.376 101.169C176.44 93.0715 180.037 92.2924 196.315 92.2924H285.188L319.541 57.9137ZM332.91 113.435L431.132 15.2717H370.14L272.175 113.435H332.943H332.91ZM374.184 113.435C371.085 113.435 368.515 112.399 366.477 110.327C365.47 109.324 364.679 108.126 364.152 106.806C363.624 105.486 363.372 104.073 363.41 102.652C363.41 99.6439 364.405 97.0829 366.452 95.0441C368.485 92.9721 371.043 91.9361 374.126 91.9361C377.232 91.9361 379.787 92.9721 381.793 95.0441C383.799 97.1492 384.835 99.6771 384.835 102.719C384.835 105.727 383.84 108.288 381.826 110.327C380.839 111.349 379.65 112.153 378.334 112.689C377.018 113.224 375.604 113.478 374.184 113.435ZM374.126 93.6517C371.59 93.6517 369.463 94.5247 367.745 96.2707C366.032 98.0278 365.178 100.155 365.184 102.652C365.184 105.18 366.029 107.286 367.745 109.059C369.46 110.808 371.557 111.686 374.126 111.686C376.64 111.686 378.754 110.811 380.467 109.059C382.18 107.33 383.033 105.202 383.028 102.677C383.055 101.492 382.843 100.313 382.403 99.2121C381.962 98.111 381.304 97.1105 380.467 96.2707C379.652 95.4153 378.666 94.7403 377.574 94.2892C376.482 93.838 375.308 93.6209 374.126 93.6517ZM372.021 104.468V108.678H369.651V96.7597H374.126C375.679 96.7597 376.842 97.0498 377.616 97.6299C378.395 98.188 378.784 99.0527 378.784 100.224C378.784 101.384 378.621 102.238 378.295 102.785C377.928 103.397 377.373 103.873 376.712 104.144L378.95 108.678H376.455L374.417 104.468H372.021ZM371.988 98.6079V102.586H374.383C375.129 102.586 375.643 102.462 375.966 102.13C376.298 101.799 376.461 101.293 376.455 100.614C376.455 99.2654 375.613 98.5969 373.927 98.6079H371.988Z" fill="#E10600"/>
</svg>
