<svg width="16" height="16" viewBox="0 0 16 16" fill="none" xmlns="http://www.w3.org/2000/svg">
<path d="M7.99989 10.3333C7.38105 10.3333 6.78756 10.0874 6.34998 9.64984C5.91239 9.21225 5.66656 8.61876 5.66656 7.99992C5.66656 7.38108 5.91239 6.78759 6.34998 6.35C6.78756 5.91242 7.38105 5.66659 7.99989 5.66659C8.61873 5.66659 9.21222 5.91242 9.64981 6.35C10.0874 6.78759 10.3332 7.38108 10.3332 7.99992C10.3332 8.61876 10.0874 9.21225 9.64981 9.64984C9.21222 10.0874 8.61873 10.3333 7.99989 10.3333ZM12.9532 8.64659C12.9799 8.43325 12.9999 8.21992 12.9999 7.99992C12.9999 7.77992 12.9799 7.55992 12.9532 7.33325L14.3599 6.24659C14.4866 6.14659 14.5199 5.96659 14.4399 5.81992L13.1066 3.51325C13.0266 3.36659 12.8466 3.30659 12.6999 3.36659L11.0399 4.03325C10.6932 3.77325 10.3332 3.54659 9.91323 3.37992L9.66656 1.61325C9.65302 1.53473 9.61212 1.46354 9.5511 1.41229C9.49009 1.36104 9.41291 1.33304 9.33323 1.33325H6.66656C6.49989 1.33325 6.35989 1.45325 6.33323 1.61325L6.08656 3.37992C5.66656 3.54659 5.30656 3.77325 4.95989 4.03325L3.29989 3.36659C3.15323 3.30659 2.97323 3.36659 2.89323 3.51325L1.55989 5.81992C1.47323 5.96659 1.51323 6.14659 1.63989 6.24659L3.04656 7.33325C3.01989 7.55992 2.99989 7.77992 2.99989 7.99992C2.99989 8.21992 3.01989 8.43325 3.04656 8.64659L1.63989 9.75325C1.51323 9.85325 1.47323 10.0333 1.55989 10.1799L2.89323 12.4866C2.97323 12.6333 3.15323 12.6866 3.29989 12.6333L4.95989 11.9599C5.30656 12.2266 5.66656 12.4533 6.08656 12.6199L6.33323 14.3866C6.35989 14.5466 6.49989 14.6666 6.66656 14.6666H9.33323C9.49989 14.6666 9.63989 14.5466 9.66656 14.3866L9.91323 12.6199C10.3332 12.4466 10.6932 12.2266 11.0399 11.9599L12.6999 12.6333C12.8466 12.6866 13.0266 12.6333 13.1066 12.4866L14.4399 10.1799C14.5199 10.0333 14.4866 9.85325 14.3599 9.75325L12.9532 8.64659Z" fill="white"/>
</svg>
