<svg width="10" height="10" viewBox="0 0 10 10" fill="none" xmlns="http://www.w3.org/2000/svg">
<g clip-path="url(#clip0_25_233)">
<path d="M5.18311 3.93309C4.93903 4.17717 4.93903 4.57289 5.18311 4.81697C5.42719 5.06105 5.82292 5.06105 6.06699 4.81697L5.18311 3.93309ZM8.75005 1.25003H9.37505C9.37505 0.904852 9.09523 0.62503 8.75005 0.62503V1.25003ZM6.66672 0.62503C6.32154 0.62503 6.04172 0.904852 6.04172 1.25003C6.04172 1.59521 6.32154 1.87503 6.66672 1.87503V0.62503ZM8.12505 3.33336C8.12505 3.67854 8.40488 3.95836 8.75005 3.95836C9.09523 3.95836 9.37505 3.67854 9.37505 3.33336H8.12505ZM9.37505 5.83336V5.20836H8.12505V5.83336H9.37505ZM8.75 8.75L8.75003 9.375C9.09518 9.37498 9.37497 9.0952 9.375 8.75005L8.75 8.75ZM2.08339 8.75003L2.08336 9.37503H2.08339V8.75003ZM1.25 8.75L0.625 8.74996C0.624989 8.91572 0.69083 9.0747 0.808036 9.19192C0.925243 9.30914 1.08421 9.37499 1.24998 9.375L1.25 8.75ZM1.25005 7.9167L1.87505 7.91674V7.9167H1.25005ZM1.25 1.25L1.25003 0.625C1.08426 0.624992 0.925269 0.690844 0.80805 0.808066C0.690832 0.925289 0.624986 1.08428 0.625 1.25005L1.25 1.25ZM2.08339 1.25003L2.08339 0.62503L2.08339 1.25003ZM4.16672 1.87503H4.79172V0.62503H4.16672V1.87503ZM6.06699 4.81697L9.19199 1.69197L8.30811 0.808089L5.18311 3.93309L6.06699 4.81697ZM6.66672 1.87503H8.75005V0.62503H6.66672V1.87503ZM8.12505 1.25003V3.33336H9.37505V1.25003H8.12505ZM8.12505 5.83336V7.9167H9.37505V5.83336H8.12505ZM8.12505 7.9167C8.12505 8.02718 8.12504 8.23548 8.12503 8.41618C8.12502 8.50653 8.12501 8.58997 8.12501 8.65083C8.12501 8.68125 8.125 8.70603 8.125 8.72321C8.125 8.73179 8.125 8.73848 8.125 8.74302C8.125 8.74529 8.125 8.74702 8.125 8.74818C8.125 8.74877 8.125 8.74921 8.125 8.7495C8.125 8.74965 8.125 8.74976 8.125 8.74983C8.125 8.74987 8.125 8.7499 8.125 8.74992C8.125 8.74993 8.125 8.74993 8.125 8.74994C8.125 8.74994 8.125 8.74995 8.75 8.75C9.375 8.75005 9.375 8.75005 9.375 8.75005C9.375 8.75004 9.375 8.75004 9.375 8.75003C9.375 8.75001 9.375 8.74998 9.375 8.74994C9.375 8.74987 9.375 8.74976 9.375 8.74961C9.375 8.74931 9.375 8.74887 9.375 8.74829C9.375 8.74713 9.375 8.74539 9.375 8.74312C9.375 8.73858 9.375 8.7319 9.375 8.72331C9.375 8.70614 9.37501 8.68136 9.37501 8.65093C9.37501 8.59007 9.37502 8.50663 9.37503 8.41627C9.37504 8.23558 9.37505 8.02723 9.37505 7.9167H8.12505ZM8.75 8.75C8.74997 8.125 8.74997 8.125 8.74996 8.125C8.74996 8.125 8.74995 8.125 8.74994 8.125C8.74992 8.125 8.7499 8.125 8.74986 8.125C8.74978 8.125 8.74967 8.125 8.74953 8.125C8.74923 8.125 8.74879 8.125 8.74821 8.125C8.74704 8.125 8.74531 8.125 8.74304 8.125C8.7385 8.125 8.73182 8.125 8.72323 8.125C8.70606 8.125 8.68128 8.125 8.65085 8.125C8.59 8.12501 8.50656 8.12501 8.41621 8.12501C8.23552 8.12502 8.02721 8.12503 7.91672 8.12503V9.37503C8.02724 9.37503 8.23558 9.37502 8.41627 9.37501C8.50661 9.37501 8.59005 9.37501 8.65091 9.375C8.68134 9.375 8.70612 9.375 8.72329 9.375C8.73188 9.375 8.73856 9.375 8.7431 9.375C8.74537 9.375 8.7471 9.375 8.74827 9.375C8.74885 9.375 8.74929 9.375 8.74959 9.375C8.74973 9.375 8.74984 9.375 8.74992 9.375C8.74996 9.375 8.74998 9.375 8.75 9.375C8.75001 9.375 8.75002 9.375 8.75002 9.375C8.75003 9.375 8.75003 9.375 8.75 8.75ZM7.91672 8.12503H2.08339V9.37503H7.91672V8.12503ZM2.08341 8.12503L1.25002 8.125L1.24998 9.375L2.08336 9.37503L2.08341 8.12503ZM1.875 8.75004L1.87505 7.91674L0.625053 7.91666L0.625 8.74996L1.875 8.75004ZM1.87505 7.9167V2.08336H0.625053V7.9167H1.87505ZM1.87505 2.08336C1.87505 1.97283 1.87504 1.76446 1.87503 1.58376C1.87502 1.4934 1.87501 1.40994 1.87501 1.34908C1.87501 1.31865 1.875 1.29387 1.875 1.27669C1.875 1.2681 1.875 1.26142 1.875 1.25688C1.875 1.25461 1.875 1.25288 1.875 1.25171C1.875 1.25113 1.875 1.25069 1.875 1.25039C1.875 1.25024 1.875 1.25013 1.875 1.25006C1.875 1.25002 1.875 1.24999 1.875 1.24997C1.875 1.24996 1.875 1.24996 1.875 1.24995C1.875 1.24995 1.875 1.24995 1.25 1.25C0.625 1.25005 0.625 1.25006 0.625 1.25006C0.625 1.25007 0.625 1.25007 0.625 1.25008C0.625 1.2501 0.625 1.25013 0.625 1.25017C0.625 1.25024 0.625 1.25035 0.625 1.2505C0.625 1.25079 0.625 1.25123 0.625 1.25182C0.625 1.25298 0.625 1.25472 0.625001 1.25698C0.625001 1.26152 0.625002 1.26821 0.625002 1.2768C0.625004 1.29397 0.625006 1.31875 0.625008 1.34918C0.625013 1.41004 0.62502 1.49349 0.625026 1.58385C0.62504 1.76457 0.625053 1.97288 0.625053 2.08336H1.87505ZM1.25 1.25C1.24997 1.875 1.24997 1.875 1.24998 1.875C1.24998 1.875 1.24999 1.875 1.25 1.875C1.25002 1.875 1.25004 1.875 1.25008 1.875C1.25015 1.875 1.25027 1.875 1.25041 1.875C1.25071 1.875 1.25115 1.875 1.25173 1.875C1.2529 1.875 1.25463 1.875 1.2569 1.875C1.26144 1.875 1.26813 1.875 1.27671 1.875C1.29389 1.875 1.31868 1.875 1.34911 1.875C1.40997 1.87501 1.49343 1.87501 1.58379 1.87502C1.7645 1.87502 1.97286 1.87503 2.08339 1.87503L2.08339 0.62503C1.9729 0.62503 1.76456 0.625023 1.58384 0.625015C1.49348 0.625011 1.41003 0.625008 1.34917 0.625005C1.31873 0.625003 1.29395 0.625002 1.27677 0.625001C1.26819 0.625001 1.2615 0.625001 1.25696 0.625C1.25469 0.625 1.25296 0.625 1.25179 0.625C1.25121 0.625 1.25077 0.625 1.25048 0.625C1.25033 0.625 1.25022 0.625 1.25014 0.625C1.25011 0.625 1.25008 0.625 1.25006 0.625C1.25005 0.625 1.25004 0.625 1.25004 0.625C1.25003 0.625 1.25003 0.625 1.25 1.25ZM2.08339 1.87503H4.16672V0.62503H2.08339V1.87503Z" fill="white"/>
</g>
<defs>
<clipPath id="clip0_25_233">
<rect width="10" height="10" fill="white"/>
</clipPath>
</defs>
</svg>
